<mxfile>
    <diagram id="VvPVKsB3yH8hmssAPp1N" name="ページ1">
        <mxGraphModel dx="1038" dy="331" grid="1" gridSize="10" guides="1" tooltips="1" connect="1" arrows="1" fold="1" page="1" pageScale="1" pageWidth="300" pageHeight="400" background="#FFFFFF" math="0" shadow="0">
            <root>
                <mxCell id="0"/>
                <mxCell id="1" parent="0"/>
                <mxCell id="3" value="" style="whiteSpace=wrap;html=1;aspect=fixed;fillColor=#FFFFFF;fontColor=#000000;strokeColor=#2E2E2E;" parent="1" vertex="1">
                    <mxGeometry x="40" y="80" width="200" height="200" as="geometry"/>
                </mxCell>
                <mxCell id="4" value="" style="whiteSpace=wrap;html=1;aspect=fixed;fillColor=#FFFFFF;fontColor=#000000;strokeColor=#2E2E2E;" parent="1" vertex="1">
                    <mxGeometry x="360" y="80" width="200" height="200" as="geometry"/>
                </mxCell>
                <mxCell id="6" value="" style="endArrow=none;html=1;labelBackgroundColor=#F1FAEE;fillColor=#FFFFFF;fontColor=#000000;strokeColor=#2E2E2E;" parent="1" edge="1">
                    <mxGeometry width="50" height="50" relative="1" as="geometry">
                        <mxPoint x="80" y="280" as="sourcePoint"/>
                        <mxPoint x="80" y="120" as="targetPoint"/>
                    </mxGeometry>
                </mxCell>
                <mxCell id="7" value="" style="endArrow=none;html=1;labelBackgroundColor=#F1FAEE;fillColor=#FFFFFF;fontColor=#000000;strokeColor=#2E2E2E;" parent="1" edge="1">
                    <mxGeometry width="50" height="50" relative="1" as="geometry">
                        <mxPoint x="240" y="120" as="sourcePoint"/>
                        <mxPoint x="40" y="120" as="targetPoint"/>
                    </mxGeometry>
                </mxCell>
                <mxCell id="8" value="&lt;font style=&quot;font-size: 18px&quot;&gt;User&lt;/font&gt;" style="text;html=1;align=center;verticalAlign=middle;whiteSpace=wrap;rounded=0;fillColor=#FFFFFF;fontColor=#000000;strokeColor=#2E2E2E;" parent="1" vertex="1">
                    <mxGeometry x="40" y="80" width="200" height="40" as="geometry"/>
                </mxCell>
                <mxCell id="9" value="&lt;span style=&quot;font-size: 18px&quot;&gt;Contract&lt;/span&gt;" style="text;html=1;align=center;verticalAlign=middle;whiteSpace=wrap;rounded=0;fillColor=#FFFFFF;fontColor=#000000;strokeColor=#2E2E2E;" parent="1" vertex="1">
                    <mxGeometry x="360" y="80" width="200" height="40" as="geometry"/>
                </mxCell>
                <mxCell id="10" value="" style="endArrow=none;html=1;labelBackgroundColor=#F1FAEE;fillColor=#FFFFFF;fontColor=#000000;strokeColor=#2E2E2E;" parent="1" edge="1">
                    <mxGeometry width="50" height="50" relative="1" as="geometry">
                        <mxPoint x="560" y="120" as="sourcePoint"/>
                        <mxPoint x="360" y="120" as="targetPoint"/>
                    </mxGeometry>
                </mxCell>
                <mxCell id="11" value="" style="endArrow=none;html=1;labelBackgroundColor=#F1FAEE;fillColor=#FFFFFF;fontColor=#000000;strokeColor=#2E2E2E;" parent="1" edge="1">
                    <mxGeometry width="50" height="50" relative="1" as="geometry">
                        <mxPoint x="400" y="280" as="sourcePoint"/>
                        <mxPoint x="400" y="120" as="targetPoint"/>
                    </mxGeometry>
                </mxCell>
                <mxCell id="12" value="&lt;div&gt;&lt;font style=&quot;font-size: 18px&quot;&gt;&amp;nbsp;&lt;/font&gt;&lt;font style=&quot;font-size: 15px&quot;&gt;PK&amp;nbsp; &amp;nbsp; &amp;nbsp; id&amp;nbsp; &amp;nbsp;&lt;/font&gt;&lt;/div&gt;" style="text;html=1;align=left;verticalAlign=middle;whiteSpace=wrap;rounded=0;fillColor=#FFFFFF;opacity=0;fontColor=#000000;strokeColor=#2E2E2E;" parent="1" vertex="1">
                    <mxGeometry x="360" y="120" width="200" height="40" as="geometry"/>
                </mxCell>
                <mxCell id="13" value="&lt;div&gt;&lt;font style=&quot;font-size: 18px&quot;&gt;&amp;nbsp;&lt;/font&gt;&lt;font style=&quot;font-size: 15px&quot;&gt;PK　　id&amp;nbsp; &amp;nbsp;&lt;/font&gt;&lt;/div&gt;" style="text;html=1;align=left;verticalAlign=middle;whiteSpace=wrap;rounded=0;fillColor=#FFFFFF;opacity=0;fontColor=#000000;strokeColor=#2E2E2E;" parent="1" vertex="1">
                    <mxGeometry x="40" y="120" width="200" height="40" as="geometry"/>
                </mxCell>
                <mxCell id="14" value="&lt;font style=&quot;font-size: 15px&quot;&gt;&amp;nbsp;　 　　name&lt;/font&gt;" style="text;html=1;align=left;verticalAlign=middle;whiteSpace=wrap;rounded=0;fillColor=#FFFFFF;opacity=0;fontColor=#000000;strokeColor=#2E2E2E;" parent="1" vertex="1">
                    <mxGeometry x="40" y="160" width="200" height="40" as="geometry"/>
                </mxCell>
                <mxCell id="24" style="rounded=0;orthogonalLoop=1;jettySize=auto;html=1;exitX=1;exitY=0.5;exitDx=0;exitDy=0;entryX=0;entryY=0.5;entryDx=0;entryDy=0;endArrow=ERzeroToMany;endFill=1;startArrow=ERone;startFill=0;targetPerimeterSpacing=0;sourcePerimeterSpacing=0;edgeStyle=orthogonalEdgeStyle;labelBackgroundColor=#F1FAEE;fillColor=#FFFFFF;fontColor=#000000;strokeColor=#2E2E2E;" parent="1" source="13" target="17" edge="1">
                    <mxGeometry relative="1" as="geometry">
                        <Array as="points">
                            <mxPoint x="300" y="140"/>
                            <mxPoint x="300" y="180"/>
                        </Array>
                    </mxGeometry>
                </mxCell>
                <mxCell id="15" value="&lt;div&gt;&lt;font style=&quot;font-size: 18px&quot;&gt;&amp;nbsp;&lt;/font&gt;&lt;font style=&quot;font-size: 15px&quot;&gt;U&lt;/font&gt;&lt;font style=&quot;font-size: 15px&quot;&gt;K　　email&lt;/font&gt;&lt;/div&gt;" style="text;html=1;align=left;verticalAlign=middle;whiteSpace=wrap;rounded=0;fillColor=#FFFFFF;opacity=0;fontColor=#000000;strokeColor=#2E2E2E;" parent="1" vertex="1">
                    <mxGeometry x="40" y="200" width="200" height="40" as="geometry"/>
                </mxCell>
                <mxCell id="16" value="&lt;div&gt;&lt;font style=&quot;font-size: 15px&quot;&gt;　&amp;nbsp; 　　password&lt;/font&gt;&lt;/div&gt;" style="text;html=1;align=left;verticalAlign=middle;whiteSpace=wrap;rounded=0;fillColor=#FFFFFF;opacity=0;fontColor=#000000;strokeColor=#2E2E2E;" parent="1" vertex="1">
                    <mxGeometry x="40" y="240" width="200" height="40" as="geometry"/>
                </mxCell>
                <mxCell id="17" value="&lt;div&gt;&lt;font style=&quot;font-size: 18px&quot;&gt;&amp;nbsp;&lt;/font&gt;&lt;font style=&quot;font-size: 15px&quot;&gt;F&lt;/font&gt;&lt;font style=&quot;font-size: 15px&quot;&gt;K&amp;nbsp; &amp;nbsp; &amp;nbsp; user_id&amp;nbsp; &amp;nbsp;&lt;/font&gt;&lt;/div&gt;" style="text;html=1;align=left;verticalAlign=middle;whiteSpace=wrap;rounded=0;fillColor=#FFFFFF;opacity=0;fontColor=#000000;strokeColor=#2E2E2E;" parent="1" vertex="1">
                    <mxGeometry x="360" y="160" width="200" height="40" as="geometry"/>
                </mxCell>
                <mxCell id="18" value="&lt;div&gt;&lt;font style=&quot;font-size: 18px&quot;&gt;&amp;nbsp;&lt;/font&gt;&lt;font style=&quot;font-size: 15px&quot;&gt;&amp;nbsp; &amp;nbsp;&amp;nbsp;&lt;/font&gt;&lt;font style=&quot;font-size: 18px&quot;&gt;&amp;nbsp;&lt;/font&gt;&lt;font style=&quot;font-size: 15px&quot;&gt;&amp;nbsp; &amp;nbsp; &amp;nbsp;product_nameなど&lt;/font&gt;&lt;/div&gt;" style="text;html=1;align=left;verticalAlign=middle;whiteSpace=wrap;rounded=0;fillColor=#FFFFFF;opacity=0;fontColor=#000000;strokeColor=#2E2E2E;" parent="1" vertex="1">
                    <mxGeometry x="360" y="240" width="200" height="40" as="geometry"/>
                </mxCell>
                <mxCell id="34" style="edgeStyle=orthogonalEdgeStyle;rounded=0;orthogonalLoop=1;jettySize=auto;html=1;exitX=1;exitY=0.5;exitDx=0;exitDy=0;entryX=0;entryY=0.5;entryDx=0;entryDy=0;endArrow=ERone;endFill=0;startArrow=ERzeroToMany;startFill=1;fillColor=#FFFFFF;fontColor=#000000;strokeColor=#2E2E2E;" edge="1" parent="1" source="19" target="29">
                    <mxGeometry relative="1" as="geometry"/>
                </mxCell>
                <mxCell id="19" value="&lt;div&gt;&lt;font style=&quot;font-size: 18px&quot;&gt;&amp;nbsp;&lt;/font&gt;&lt;font style=&quot;font-size: 15px&quot;&gt;F&lt;/font&gt;&lt;font style=&quot;font-size: 15px&quot;&gt;K&amp;nbsp; &amp;nbsp; &amp;nbsp; product_id&lt;/font&gt;&lt;/div&gt;" style="text;html=1;align=left;verticalAlign=middle;whiteSpace=wrap;rounded=0;fillColor=#FFFFFF;opacity=0;fontColor=#000000;strokeColor=#2E2E2E;" parent="1" vertex="1">
                    <mxGeometry x="360" y="200" width="200" height="40" as="geometry"/>
                </mxCell>
                <mxCell id="20" value="" style="endArrow=none;html=1;labelBackgroundColor=#F1FAEE;fillColor=#FFFFFF;fontColor=#000000;strokeColor=#2E2E2E;" parent="1" edge="1">
                    <mxGeometry width="50" height="50" relative="1" as="geometry">
                        <mxPoint x="360" y="160" as="sourcePoint"/>
                        <mxPoint x="560" y="160" as="targetPoint"/>
                    </mxGeometry>
                </mxCell>
                <mxCell id="22" value="" style="endArrow=none;html=1;labelBackgroundColor=#F1FAEE;fillColor=#FFFFFF;fontColor=#000000;strokeColor=#2E2E2E;" parent="1" edge="1">
                    <mxGeometry width="50" height="50" relative="1" as="geometry">
                        <mxPoint x="40" y="159" as="sourcePoint"/>
                        <mxPoint x="240" y="159" as="targetPoint"/>
                    </mxGeometry>
                </mxCell>
                <mxCell id="25" value="" style="whiteSpace=wrap;html=1;aspect=fixed;fillColor=#FFFFFF;fontColor=#000000;strokeColor=#2E2E2E;" vertex="1" parent="1">
                    <mxGeometry x="680" y="80" width="200" height="200" as="geometry"/>
                </mxCell>
                <mxCell id="26" value="&lt;span style=&quot;font-size: 18px&quot;&gt;Product&lt;/span&gt;" style="text;html=1;align=center;verticalAlign=middle;whiteSpace=wrap;rounded=0;fillColor=#FFFFFF;fontColor=#000000;strokeColor=#2E2E2E;" vertex="1" parent="1">
                    <mxGeometry x="680" y="80" width="200" height="40" as="geometry"/>
                </mxCell>
                <mxCell id="27" value="" style="endArrow=none;html=1;labelBackgroundColor=#F1FAEE;edgeStyle=orthogonalEdgeStyle;fillColor=#FFFFFF;fontColor=#000000;strokeColor=#2E2E2E;" edge="1" parent="1">
                    <mxGeometry width="50" height="50" relative="1" as="geometry">
                        <mxPoint x="880" y="120" as="sourcePoint"/>
                        <mxPoint x="680" y="120" as="targetPoint"/>
                    </mxGeometry>
                </mxCell>
                <mxCell id="28" value="" style="endArrow=none;html=1;labelBackgroundColor=#F1FAEE;edgeStyle=orthogonalEdgeStyle;fillColor=#FFFFFF;fontColor=#000000;strokeColor=#2E2E2E;" edge="1" parent="1">
                    <mxGeometry width="50" height="50" relative="1" as="geometry">
                        <mxPoint x="720" y="280" as="sourcePoint"/>
                        <mxPoint x="720" y="120" as="targetPoint"/>
                    </mxGeometry>
                </mxCell>
                <mxCell id="29" value="&lt;div&gt;&lt;font style=&quot;font-size: 18px&quot;&gt;&amp;nbsp;&lt;/font&gt;&lt;font style=&quot;font-size: 15px&quot;&gt;PK&amp;nbsp; &amp;nbsp; &amp;nbsp; id&amp;nbsp; &amp;nbsp;&lt;/font&gt;&lt;/div&gt;" style="text;html=1;align=left;verticalAlign=middle;whiteSpace=wrap;rounded=0;fillColor=#FFFFFF;opacity=0;fontColor=#000000;strokeColor=#2E2E2E;" vertex="1" parent="1">
                    <mxGeometry x="680" y="120" width="200" height="40" as="geometry"/>
                </mxCell>
                <mxCell id="30" value="&lt;span style=&quot;font-size: 18px&quot;&gt;&amp;nbsp; &amp;nbsp; &amp;nbsp; &amp;nbsp; &amp;nbsp; &lt;/span&gt;&lt;font style=&quot;font-size: 15px&quot;&gt;product_name&lt;/font&gt;" style="text;html=1;align=left;verticalAlign=middle;whiteSpace=wrap;rounded=0;fillColor=#FFFFFF;opacity=0;fontColor=#000000;strokeColor=#2E2E2E;" vertex="1" parent="1">
                    <mxGeometry x="680" y="160" width="200" height="40" as="geometry"/>
                </mxCell>
                <mxCell id="32" value="&lt;span style=&quot;font-size: 18px&quot;&gt;&amp;nbsp; &amp;nbsp; &amp;nbsp; &amp;nbsp; &amp;nbsp; &lt;/span&gt;&lt;font style=&quot;font-size: 15px&quot;&gt;product_price&lt;/font&gt;" style="text;html=1;align=left;verticalAlign=middle;whiteSpace=wrap;rounded=0;fillColor=#FFFFFF;opacity=0;fontColor=#000000;strokeColor=#2E2E2E;" vertex="1" parent="1">
                    <mxGeometry x="680" y="200" width="200" height="40" as="geometry"/>
                </mxCell>
                <mxCell id="33" value="" style="endArrow=none;html=1;labelBackgroundColor=#F1FAEE;edgeStyle=orthogonalEdgeStyle;fillColor=#FFFFFF;fontColor=#000000;strokeColor=#2E2E2E;" edge="1" parent="1">
                    <mxGeometry width="50" height="50" relative="1" as="geometry">
                        <mxPoint x="680" y="160" as="sourcePoint"/>
                        <mxPoint x="880" y="160" as="targetPoint"/>
                    </mxGeometry>
                </mxCell>
            </root>
        </mxGraphModel>
    </diagram>
</mxfile>